<?xml version="1.0" encoding="utf-8"?>
<!-- Generator: Adobe Illustrator 23.0.4, SVG Export Plug-In . SVG Version: 6.00 Build 0)  -->
<svg version="1.1" id="Layer_1" xmlns="http://www.w3.org/2000/svg" xmlns:xlink="http://www.w3.org/1999/xlink" x="0px" y="0px"
	 viewBox="0 0 400 400" style="enable-background:new 0 0 400 400;" xml:space="preserve">
<style type="text/css">
	.st0{fill:#010101;}
	.st1{fill:#FFFFFF;}
	.st2{fill:#080707;}
	.st3{fill:#060505;}
	.st4{fill:#020202;}
</style>
<g id="EKec2X.tif">
	<g>
		<path class="st0" d="M305.73,25.98c3.7,0,7.4,0,11.09,0c11.06,1.51,17.78,8.34,21.26,18.36c2.47,7.1,7.05,9.7,14.23,9.49
			c7.38-0.22,14.77-0.19,22.15,0.04c18.34,0.57,25.12,7.47,25.53,25.82c0,76.51,0,153,0,229.48c-0.98,16.61-7.45,23.4-23.81,24.23
			c-12.18,0.62-24.4,0.2-36.6,0.21c-85.04,0.02-170.08,0.04-255.12-0.01c-27.44-0.02-37.45-9.89-37.51-37.44
			c-0.14-68.4-0.06-136.8-0.04-205.2c0-2.22,0-4.44,0.13-6.65c1.19-19.77,12.03-30.58,31.78-30.8c33.27-0.37,66.56-0.42,99.83,0.02
			c17.18,0.23,33.71-1.71,50.18-6.96C254.13,38.49,279.28,29.74,305.73,25.98z"/>
		<path class="st1" d="M381.5,247.61c-21.94-26.36-42.11-50.58-62.26-74.82c-8.5-10.22-16.88-20.54-25.45-30.7
			c-10.81-12.82-19.14-12.91-29.65-0.04c-20.77,25.46-41.38,51.05-62,76.63c-14.31,17.75-20.82,17.93-35.08,0.74
			c-8.01-9.66-15.81-19.51-24.03-29c-8.83-10.2-18.1-10.12-26.92,0.29c-14.9,17.58-29.55,35.38-44.6,53.44
			c-2.94-3.94-1.83-7.32-1.83-10.42c-0.09-48.41,0.28-96.82-0.31-145.22c-0.14-11.5,3.67-14.13,14.63-14.08
			c94.59,0.41,189.19,0.39,283.79,0.02c10.38-0.04,14.07,2.41,13.95,13.43c-0.56,49.51-0.24,99.03-0.24,148.54
			C381.5,239.25,381.5,242.06,381.5,247.61z"/>
		<path class="st2" d="M34.7,253.98c-4.9-6.58-5.29-12.53-6.92-17.94c-8.89-29.51-17.73-59.03-26.42-88.6
			c-6.02-20.5,8.63-38.93,30.03-38.48c4.74,0.1,3.22,3.16,3.23,5.19C34.72,160.06,34.7,205.97,34.7,253.98z"/>
		<path class="st3" d="M189.85,347.49c-32.49,9.64-64.79,19.98-97.54,28.62c-15.46,4.08-30.92-10.86-30.69-26.85
			c0.09-6.25,4.6-3.55,7.06-3.56c40.14-0.18,80.29-0.13,120.43-0.13C189.36,346.21,189.61,346.85,189.85,347.49z"/>
		<path class="st4" d="M154.47,127.47c-0.12-17.74,13.82-31.89,31.27-31.73c16.84,0.15,30.93,14.24,31.1,31.09
			c0.17,17.22-14.46,31.97-31.57,31.83C168.41,158.52,154.59,144.52,154.47,127.47z"/>
	</g>
</g>
</svg>
