<?xml version="1.0" encoding="utf-8"?>
<!-- Generator: Adobe Illustrator 23.0.4, SVG Export Plug-In . SVG Version: 6.00 Build 0)  -->
<svg version="1.1" id="Layer_1" xmlns="http://www.w3.org/2000/svg" xmlns:xlink="http://www.w3.org/1999/xlink" x="0px" y="0px"
	 viewBox="0 0 400 400" style="enable-background:new 0 0 400 400;" xml:space="preserve">
<g id="wVCTqf.tif">
	<g>
		<path d="M399.86,400.26c-132.93,0-265.65,0-398.83,0c0.2-3.71,0.28-7.41,0.63-11.08c1.9-19.71,6.08-38.91,13.33-57.37
			c18.66-47.51,50.08-83.88,94.89-108.57c2.17-1.2,3.46-1,5.39,0.54c20.66,16.5,44.1,26.46,70.45,29.17
			c37.65,3.87,71.27-6.18,100.82-29.78c1.41-1.13,2.39-1.16,3.91-0.33c47.4,25.85,79.77,64.49,97.9,115.18
			c6.85,19.14,10.57,38.94,11.59,59.25c0.03,0.58,0.06,1.16,0.05,1.75C400,399.35,399.93,399.68,399.86,400.26z"/>
		<path d="M84,117.34C83.98,52.61,137.4-0.52,203.46,1.03C264.64,2.46,317,52.13,317.1,117.43c0.1,65.84-53.95,117.87-118.98,116.57
			C135.34,232.74,83.92,181.46,84,117.34z"/>
	</g>
</g>
</svg>
